<?xml version="1.0" encoding="utf-8"?>
<!-- Generator: Adobe Illustrator 26.0.3, SVG Export Plug-In . SVG Version: 6.00 Build 0)  -->
<svg version="1.1" id="Layer_1" xmlns="http://www.w3.org/2000/svg" xmlns:xlink="http://www.w3.org/1999/xlink" x="0px" y="0px"
	 viewBox="0 0 50 40" style="enable-background:new 0 0 50 40;" xml:space="preserve">
<style type="text/css">
	.st0{clip-path:url(#SVGID_00000118398137399102125420000015525090442367530137_);}
	
		.st1{clip-path:url(#SVGID_00000138532466705858144440000000543385314460232331_);fill-rule:evenodd;clip-rule:evenodd;fill:#D7DAE0;}
</style>
<g>
	<g>
		<defs>
			<rect id="SVGID_1_" x="-0.0316456" y="-5.0316458" width="50.0632896" height="50.0632896"/>
		</defs>
		<clipPath id="SVGID_00000020394275337313831870000012328403647195323013_">
			<use xlink:href="#SVGID_1_"  style="overflow:visible;"/>
		</clipPath>
		<g style="clip-path:url(#SVGID_00000020394275337313831870000012328403647195323013_);">
			<defs>
				
					<rect id="SVGID_00000034777286493785869570000010908453496434199225_" x="-0.0316456" y="-5.0316458" width="50.0632896" height="50.0632896"/>
			</defs>
			<clipPath id="SVGID_00000111163623453656413490000005986414036333332364_">
				<use xlink:href="#SVGID_00000034777286493785869570000010908453496434199225_"  style="overflow:visible;"/>
			</clipPath>
			
				<path style="clip-path:url(#SVGID_00000111163623453656413490000005986414036333332364_);fill-rule:evenodd;clip-rule:evenodd;fill:#D7DAE0;" d="
				M25.0156441,7.8546472c7.9266891,0,15.8533783,0.0020852,23.777977-0.0083432
				c0.4860306-0.0020885,0.8135262,0.1647892,1.0721893,0.5590391c0.0855255,0.1293316,0.1752205,0.2315435,0.1564484,0.3963318
				c-0.012516,0.1084709-0.0020866,0.2169409-0.0020866,0.3254118c0,7.2529202-0.0062599,14.5037537,0.0104294,21.7566719
				c0.0020866,0.515234-0.1877365,0.8427315-0.5736389,1.1326828c-0.1314201,0.0980415-0.2440605,0.1564484-0.4005089,0.1439323
				c-0.1084709-0.0104294-0.2190285-0.0020866-0.3274956-0.0020866c-15.8304329,0-31.6587753-0.0020866-47.4892044,0.0062561
				c-0.3316696,0-0.6466507-0.0104294-0.8656776-0.2732601c-0.1710501-0.2065125-0.435968-0.3796482-0.3942487-0.7134018
				c0.0062575-0.0438061,0-0.0876102,0-0.1314163c0-7.3593025,0.0041716-14.7206936-0.0125159-22.0820808
				c0-0.3587894,0.16062-0.6362219,0.356701-0.8218746C0.5013195,7.973546,0.7641517,7.833787,1.1083367,7.8358722
				C9.0767431,7.8588171,17.0472355,7.8546472,25.0156441,7.8546472 M25.5162773,13.6119242
				c-1.5477905,1.6061964-3.0788937,3.1957064-4.6308556,4.8060751v7.0046883
				c1.5853386,1.5853386,3.1706753,3.1685905,4.7643566,4.7622719h6.9191647
				c1.7793312-1.4726963,3.2687149-3.197794,4.9062004-4.7393246v-7.0589256
				c-1.5248413-1.6166248-3.1977882-3.0684614-4.6016464-4.774785H25.5162773z M25.1846085,30.1703568
				c-0.1689644-0.1397591-0.3358421-0.2565746-0.4756031-0.3984203c-0.7926693-0.7926693-1.55196-1.6166248-2.3258553-2.4280682
				c-1.6354027-1.716753-3.343811-3.3688431-5.0209332-5.0459633c-0.1752205-0.177309-0.3525276-0.3525295-0.534008-0.534008
				c1.6750355-1.6729488,3.3229523-3.3208656,4.945837-4.9437504V10.211792
				c-0.1418457,0.1731358-0.2524033,0.3420982-0.3963356,0.4756031c-0.4046764,0.3775597-0.8406448,0.7238321-1.2348938,1.1139069
				c-2.129776,2.1193457-4.2512074,4.247036-6.376811,6.3726406c-0.1022129,0.102211-0.2085972,0.2002525-0.3337555,0.3233242
				c-2.7451372-2.7451363-5.4527268-5.4527273-8.2145519-8.214551v6.6876211
				c1.5790796,1.4497509,3.0288291,3.0288296,4.6016507,4.4890079c1.5519619,1.4393196,3.045517,2.9495621,4.4702339,4.5286407
				c1.3245926,1.4685249,2.784771,2.816061,4.1510811,4.1823711H25.1846085z M33.2135086,30.1640987
				c0.0083427,0.0041733,0.0458908,0.0312901,0.0834389,0.0312901c2.9829369,0.0020866,5.9658737,0.0020866,8.9488144,0
				c0.102211,0,0.216938-0.0020866,0.3045502-0.0458908c0.8135262-0.4025936,1.6604309-0.7238331,2.4989929-1.0659313
				c1.0054398-0.4088497,1.9920998-0.8635902,2.9954567-1.3016453c0.1042938-3.1414719,0.0584068-16.3602676-0.0625839-16.9318237
				c-1.666687,0.7092304-3.3333778,1.4184608-5.016758,2.136034c0,4.7476683,0,9.4911661-0.0020866,14.234664
				c0,0.0187721-0.0083427,0.0396328-0.0187759,0.0563202c-0.0125122,0.0187721-0.0292015,0.0312901-0.0208549,0.0229454h-4.5182114
				c-0.0458946-0.788496,0.0312881-1.5582199-0.0396347-2.2903957
				C36.6407585,26.7347641,34.9219208,28.4536037,33.2135086,30.1640987 M9.0371103,22.4647827
				c-0.0667505,0.0813522-0.1230717,0.1731358-0.2002535,0.2440586c-1.6228843,1.5561352-3.131041,3.2290821-4.822763,4.7184658
				c-1.0054381,0.8844509-1.908663,1.8878021-2.8974128,2.8744659h6.6479874
				c0.7864103-0.7029724,1.468523-1.4768658,2.263278-2.1464615c0.8448172-0.7113171,1.5811653-1.5498772,2.36549-2.3342037
				C11.2837,24.7113743,10.1760502,23.6037235,9.0371103,22.4647827"/>
			
				<path style="clip-path:url(#SVGID_00000111163623453656413490000005986414036333332364_);fill-rule:evenodd;clip-rule:evenodd;fill:#D7DAE0;" d="
				M32.6217194,18.2133675v7.3739071h-6.8336391c-0.0876122-0.5235806-0.1189003-5.6154327-0.03755-7.3739071H32.6217194z"/>
		</g>
	</g>
</g>
</svg>
